<svg xmlns="http://www.w3.org/2000/svg" viewBox="0 0 400 130.51549" height="130.515" width="400"><path d="M259.38 29.25v-.106c0-10.352 9.761-18.83 23.189-18.83s23.065 8.375 23.065 18.727v.103c0 10.35-9.76 18.831-23.19 18.831-13.43 0-23.065-8.378-23.065-18.724m36.245 0v-.107c0-6.24-5.473-11.444-13.18-11.444-7.711 0-13.057 5.099-13.057 11.341v.103c0 6.241 5.47 11.45 13.182 11.45 7.71 0 13.055-5.106 13.055-11.343m16.042-18.311h19.892c5.539 0 9.825 1.297 12.686 3.691 2.424 2.026 3.73 4.89 3.73 8.32v.107c0 5.876-3.791 9.571-9.328 11.292l10.632 13.005h-11.192l-9.328-11.66h-7.518v11.66h-9.574V10.94zm19.27 17.686c4.668 0 7.337-2.08 7.337-5.149v-.11c0-3.431-2.862-5.2-7.526-5.2h-9.507v10.46h9.695M35.996 44.855c-3.666 1.976-8.083 3.119-12.927 3.119C9.637 47.974 0 39.597 0 29.25v-.107c0-10.351 9.76-18.83 23.192-18.83 13.425 0 23.064 8.377 23.064 18.727v.103c0 3.793-1.367 7.441-3.852 10.453l4.473 3.176-6.093 5.67-4.788-3.588zm-7.08-5.258l-7.095-5.04 6.092-5.724 7.152 5.41c.806-1.515 1.187-3.174 1.187-4.992v-.107c0-6.24-5.476-11.443-13.183-11.443-7.711 0-13.057 5.099-13.057 11.34v.103c0 6.241 5.474 11.448 13.18 11.448 2.116 0 4.04-.368 5.723-.995M51.6 31.746V10.941h9.575v20.595c0 5.928 3.548 8.999 9.391 8.999s9.386-2.97 9.386-8.743V10.941h9.572v20.54c0 11.03-7.39 16.44-19.082 16.44S51.6 42.461 51.6 31.746m85.556-20.806h20.203c4.974 0 8.89 1.144 11.38 3.222 1.99 1.668 2.982 3.694 2.982 6.19v.109c0 4.108-2.61 6.402-5.716 7.846 5.033 1.618 8.14 4.062 8.14 8.957v.098c0 6.66-6.464 9.993-16.291 9.993h-20.698V10.94zm18.15 14.723c4.228 0 6.9-1.149 6.9-3.854v-.103c0-2.39-2.24-3.742-6.277-3.742h-9.448v7.7h8.824zm2.548 14.665c4.23 0 6.78-1.246 6.78-3.957v-.096c0-2.45-2.173-3.957-7.09-3.957h-11.063v8.01h11.373m22.132-29.388h32.828v7.127h-23.315v7.382h20.52v7.13H189.5v7.646h23.627v7.13h-33.14V10.94m37.239 18.31v-.106c0-10.352 9.328-18.83 22.696-18.83 8.206 0 13.115 2.291 17.156 5.62l-6.096 5.875c-3.354-2.548-6.77-4.109-11.124-4.109-7.334 0-12.62 5.099-12.62 11.341v.103c0 6.241 5.161 11.45 12.62 11.45 4.975 0 8.023-1.67 11.44-4.275l6.09 5.158c-4.475 4.002-9.449 6.498-17.84 6.498-12.807 0-22.322-8.272-22.322-18.724M96.8 10.94h32.826v7.127h-23.313v7.382h20.52v7.13h-20.52v7.646h23.624v7.13H96.8V10.94M113.886 0l-6.269 8.271h7.493l6.744-5.35L113.886 0"/><path d="M138.299 130.515S218.226 5.863 400 50.722c0 0-159.874-28.57-261.701 79.793" fill="#6fa7df"/></svg>